<mxfile host="65bd71144e">
    <diagram name="Page-1" id="lDkK2i6CeL2VbSOVDvrP">
        <mxGraphModel dx="1144" dy="698" grid="1" gridSize="10" guides="1" tooltips="1" connect="1" arrows="1" fold="1" page="1" pageScale="1" pageWidth="827" pageHeight="1169" math="0" shadow="0">
            <root>
                <mxCell id="0"/>
                <mxCell id="1" parent="0"/>
                <mxCell id="ifhO3zQZNW-sXvZMTmu8-2" value="&lt;p class=&quot;p1&quot;&gt;&lt;b&gt;System API (LibSCI.dylib) â€“ User-Space Interface (Ring 3, EL0)&lt;/b&gt;&lt;/p&gt;" style="rounded=0;whiteSpace=wrap;html=1;" parent="1" vertex="1">
                    <mxGeometry x="235.5" y="340" width="360" height="30" as="geometry"/>
                </mxCell>
                <mxCell id="ifhO3zQZNW-sXvZMTmu8-3" value="&lt;p class=&quot;p1&quot;&gt;&lt;b&gt;Applications &amp;amp; Dynamically Linked Libraries (Ring 3, EL0)&lt;/b&gt;&lt;/p&gt;" style="rounded=0;whiteSpace=wrap;html=1;" parent="1" vertex="1">
                    <mxGeometry x="235.5" y="295" width="360" height="35" as="geometry"/>
                </mxCell>
                <mxCell id="ifhO3zQZNW-sXvZMTmu8-13" value="&lt;p class=&quot;p1&quot;&gt;&lt;b&gt;NeKernel MP Kernel, DDK, and Drivers (Ring 0, EL1)&lt;/b&gt;&lt;/p&gt;" style="rounded=0;whiteSpace=wrap;html=1;" parent="1" vertex="1">
                    <mxGeometry x="235.5" y="450" width="360" height="60" as="geometry"/>
                </mxCell>
                <mxCell id="4" value="&lt;p class=&quot;p1&quot;&gt;&lt;b&gt;SCI and DDK Kernel Calls (Ring 0 / Ring 2, EL0 to EL1 Transitions)&lt;/b&gt;&lt;/p&gt;" style="rounded=0;whiteSpace=wrap;html=1;" parent="1" vertex="1">
                    <mxGeometry x="235.5" y="380" width="360" height="60" as="geometry"/>
                </mxCell>
            </root>
        </mxGraphModel>
    </diagram>
</mxfile>